<?xml version="1.0" encoding="UTF-8"?><svg id="Layer_1" xmlns="http://www.w3.org/2000/svg" xmlns:xlink="http://www.w3.org/1999/xlink" viewBox="0 0 76.52 76.52"><defs><clipPath id="clippath"><rect width="76.52" height="76.52" fill="none" stroke-width="0"/></clipPath><clipPath id="clippath-1"><rect x="50.32" y="48.32" width="7.72" height="9.83" fill="none" stroke-width="0"/></clipPath><clipPath id="clippath-2"><rect x="18.48" y="30.32" width="39.57" height="20" fill="none" stroke-width="0"/></clipPath><clipPath id="clippath-3"><rect x="18.48" y="18.36" width="35.85" height="29.96" fill="none" stroke-width="0"/></clipPath></defs><g clip-path="url(#clippath)"><path d="M38.26,72.93c19.15,0,34.67-15.52,34.67-34.67S57.41,3.59,38.26,3.59,3.59,19.11,3.59,38.26s15.52,34.67,34.67,34.67ZM0,38.26C0,17.13,17.13,0,38.26,0s38.26,17.13,38.26,38.26-17.13,38.26-38.26,38.26S0,59.39,0,38.26Z" fill="#fff" stroke-width="0"/><path d="M74.98,38.26c0,20.29-16.44,36.73-36.73,36.73S1.53,58.54,1.53,38.26,17.97,1.53,38.26,1.53s36.73,16.44,36.73,36.73Z" fill="#fff" stroke-width="0"/><path d="M51.03,42.44c2.75.59,1.94,5.4,1.21,6.96-.84,1.75-2.6,3.83-4.66,4-2.49.2-6.59-2.3-7.36-4.66-.88-2.71-.04-6.39,2.43-7.99,1.59-1.03,3.65-.84,5.45-.75,2.14.1,2.97.85,3.78,2.71.52,1.19,2.27.16,1.75-1.02-1.07-2.43-2.34-3.52-5.04-3.69-2.64-.16-5.27-.45-7.36,1.33-3.54,3-4.91,9.28-1.08,12.66,3.66,3.24,8.65,5.14,12.22.77,2-2.45,2.78-4.66,2.49-7.83-.2-2.13-1.05-3.95-3.27-4.43-1.27-.27-1.81,1.68-.54,1.95" fill="#000" stroke-width="0"/><path d="M45.63,43.54v5.8c0,1.3,2.02,1.3,2.02,0v-5.8c0-1.3-2.02-1.3-2.02,0" fill="#000" stroke-width="0"/><path d="M43.6,47.66h6.47c1.3,0,1.3-2.02,0-2.02h-6.47c-1.3,0-1.3,2.02,0,2.02" fill="#000" stroke-width="0"/></g><g clip-path="url(#clippath-1)"><path d="M52.9,51.15c1.26.9,2.66,2.15,2.68,3.83.01,1.2-.75,1.04-1.48.43-.69-.59-1.37-1.22-2-1.87-.91-.93-2.34.5-1.43,1.43.99,1.01,2.38,2.7,3.78,3.12,1.09.32,2.38-.5,2.84-1.49,1.35-2.86-1.25-5.67-3.38-7.19-1.06-.76-2.07,1-1.02,1.75" fill="#000" stroke-width="0"/></g><g clip-path="url(#clippath-2)"><path d="M38.34,47.34c-6.29-.12-12.57-.15-18.85-.08l.97,1.28c1.14-3.78,2.47-7.56,3.29-11.43.17-.82.07-3.18.59-3.86.99-1.27,5.67-.57,6.96-.57h25.73l-.88-1.52c-2.38,4.02-.34,9.12-3.13,12.86-.78,1.05.98,2.06,1.75,1.02,2.91-3.9.75-8.83,3.13-12.86.39-.66-.11-1.52-.88-1.52-10.39,0-20.79-.07-31.18,0-2.3.01-3.03.03-3.5,2.19-1.11,5.15-2.31,10.09-3.84,15.16-.19.62.33,1.29.98,1.28,6.28-.07,12.57-.04,18.85.08,1.3.03,1.3-2,0-2.02" fill="#000" stroke-width="0"/></g><g clip-path="url(#clippath-3)"><path d="M20.55,47.12l-.03-27.38-1.01,1.01c3.66-.09,7.27-.98,9.6,2.19,1.15,1.55,1.09,2.83,2.95,3.34,2.87.79,6.97.07,9.91.08l11.25.05-1.01-1.01.05,4.99c.02,1.3,2.04,1.31,2.02,0l-.05-4.99c0-.56-.46-1-1.01-1.01l-11.25-.05c-3.9-.02-8.58.94-11.12-2.43-1-1.32-1.03-2.72-2.65-3.22-2.42-.75-6.16-.04-8.69.02-.55.01-1.01.45-1.01,1.01l.03,27.38c0,1.31,2.02,1.31,2.02,0" fill="#000" stroke-width="0"/></g></svg>