<svg xmlns="http://www.w3.org/2000/svg" version="1.1" xmlns:xlink="http://www.w3.org/1999/xlink" xmlns:svgjs="http://svgjs.dev/svgjs" width="128" height="128" viewBox="0 0 128 128"><g transform="matrix(0.8046875,0,0,0.8046875,12.411840748212605,12.814873242367192)"><svg viewBox="0 0 98 98" data-background-color="#ffffff" preserveAspectRatio="xMidYMid meet" height="127" width="128" xmlns="http://www.w3.org/2000/svg" xmlns:xlink="http://www.w3.org/1999/xlink"><g id="tight-bounds" transform="matrix(1,0,0,1,0.0838796764579115,0.0838796764579115)"><svg viewBox="0 0 97.83224064708416 97.83224064708416" height="97.83224064708416" width="97.83224064708416"><g><svg></svg></g><g><svg viewBox="0 0 97.83224064708416 97.83224064708416" height="97.83224064708416" width="97.83224064708416"><g><path d="M0 48.916c0-27.016 21.9-48.916 48.916-48.916 27.016 0 48.916 21.9 48.916 48.916 0 27.016-21.9 48.916-48.916 48.916-27.016 0-48.916-21.9-48.916-48.916zM48.916 93.244c24.481 0 44.328-19.846 44.328-44.328 0-24.481-19.846-44.328-44.328-44.327-24.481 0-44.328 19.846-44.327 44.327 0 24.481 19.846 44.328 44.327 44.328z" data-fill-palette-color="tertiary" fill="#ffffff" stroke="transparent"></path><ellipse rx="46.9594755106004" ry="46.9594755106004" cx="48.91612032354208" cy="48.91612032354208" fill="#ffffff" stroke="transparent" stroke-width="0" fill-opacity="1" data-fill-palette-color="tertiary"></ellipse></g><g transform="matrix(1,0,0,1,23.475393915029343,23.475393915029343)"><svg viewBox="0 0 50.881452817025476 50.881452817025476" height="50.881452817025476" width="50.881452817025476"><g><svg viewBox="0 0 50.881452817025476 50.881452817025476" height="50.881452817025476" width="50.881452817025476"><g><svg viewBox="0 0 50.881452817025476 50.881452817025476" height="50.881452817025476" width="50.881452817025476"><g id="textblocktransform"><svg viewBox="0 0 50.881452817025476 50.881452817025476" height="50.881452817025476" width="50.881452817025476" id="textblock"><g><svg viewBox="0 0 50.881452817025476 50.881452817025476" height="50.881452817025476" width="50.881452817025476"><g><svg viewBox="0 0 50.881452817025476 50.881452817025476" height="50.881452817025476" width="50.881452817025476"><g><svg xmlns="http://www.w3.org/2000/svg" xmlns:xlink="http://www.w3.org/1999/xlink" version="1.1" x="0" y="0" viewBox="5.249 5.03 89.97 89.97" enable-background="new 0 0 100 100" xml:space="preserve" height="50.881452817025476" width="50.881452817025476" class="icon-icon-0" data-fill-palette-color="quaternary" id="icon-0"><g fill="#ffffff" data-fill-palette-color="quaternary"><g fill="#ffffff" data-fill-palette-color="quaternary"><path d="M50.234 95C25.429 95 5.249 74.82 5.249 50.015S25.429 5.03 50.234 5.03 95.219 25.21 95.219 50.015 75.039 95 50.234 95M50.234 9.398C27.838 9.398 9.617 27.619 9.617 50.015S27.838 90.632 50.234 90.632 90.851 72.411 90.851 50.015 72.63 9.398 50.234 9.398" fill="#000000" data-fill-palette-color="quaternary"></path></g><g fill="#ffffff" data-fill-palette-color="quaternary"><path d="M30.041 69.644L41.364 42.279A2.15 2.15 0 0 1 42.538 41.11L69.955 29.914A0.361 0.361 0 0 1 70.426 30.387L59.104 57.752A2.15 2.15 0 0 1 57.93 58.921L30.512 70.117A0.362 0.362 0 0 1 30.041 69.644M44.703 45.633L37.823 62.26C37.795 62.328 37.863 62.397 37.931 62.369L54.591 55.566A2.15 2.15 0 0 0 55.765 54.397L62.645 37.77C62.673 37.702 62.605 37.633 62.537 37.661L45.877 44.464A2.16 2.16 0 0 0 44.703 45.633" fill="#000000" data-fill-palette-color="quaternary"></path></g></g></svg></g></svg></g></svg></g></svg></g></svg></g><g></g></svg></g></svg></g></svg></g><defs></defs></svg><rect width="97.83224064708416" height="97.83224064708416" fill="none" stroke="none" visibility="hidden"></rect></g></svg></g></svg>